<svg width="33" height="30" viewBox="0 0 33 30" fill="none" xmlns="http://www.w3.org/2000/svg">
<path d="M6.5073 21.5264L5.59655 21.936L5.59655 21.936L6.5073 21.5264ZM6.04526 14.7466L5.08851 14.4604L5.08851 14.4604L6.04526 14.7466ZM26.5343 14.7466L27.4911 14.4604L27.4911 14.4604L26.5343 14.7466ZM26.0722 21.5264L25.1615 21.1167L25.1615 21.1167L26.0722 21.5264ZM19.0013 26.1217L18.8615 25.1329L18.8615 25.1329L19.0013 26.1217ZM13.5782 26.1217L13.4383 27.1105L13.4383 27.1105L13.5782 26.1217ZM11.0735 10.3165L10.8928 9.33433L11.0735 10.3165ZM21.5061 10.3165L21.3254 11.2986L21.3254 11.2986L21.5061 10.3165ZM12.5812 25.9807L12.7211 24.9919L12.7211 24.9919L12.5812 25.9807ZM6.63098 21.8014L7.54174 21.3917L7.54173 21.3917L6.63098 21.8014ZM19.9983 25.9807L20.1382 26.9695L20.1382 26.9695L19.9983 25.9807ZM25.9486 21.8014L26.8593 22.211L26.8593 22.211L25.9486 21.8014ZM26.4324 14.4059L25.4757 14.6921L25.4757 14.6921L26.4324 14.4059ZM6.14716 14.4059L7.10392 14.6921L7.10392 14.6921L6.14716 14.4059ZM20.5207 10.6074L19.6216 10.1728L19.6216 10.1728L20.5207 10.6074ZM19.3379 10.7596C19.0979 11.2562 19.3059 11.8533 19.8024 12.0933C20.299 12.3334 20.8961 12.1254 21.1361 11.6288L19.3379 10.7596ZM12.0589 10.6074L12.958 10.1728L12.958 10.1728L12.0589 10.6074ZM11.4434 11.6288C11.6834 12.1254 12.2806 12.3334 12.7771 12.0933C13.2737 11.8533 13.4816 11.2562 13.2416 10.7596L11.4434 11.6288ZM15.2817 4.61374L15.4348 5.60057L15.4349 5.60057L15.2817 4.61374ZM15.4381 4.58948L15.285 3.60265L15.285 3.60265L15.4381 4.58948ZM17.1414 4.58948L16.9883 5.5763L16.9883 5.5763L17.1414 4.58948ZM17.2978 4.61374L17.4509 3.62692L17.4509 3.62692L17.2978 4.61374ZM20.8507 7.60863L21.8213 7.37402L21.8213 7.37402L20.8507 7.60863ZM11.7289 7.60863L12.6996 7.84323L12.6996 7.84323L11.7289 7.60863ZM19.8584 24.9919L18.8615 25.1329L19.1412 27.1105L20.1382 26.9695L19.8584 24.9919ZM13.7181 25.1329L12.7211 24.9919L12.4414 26.9695L13.4383 27.1105L13.7181 25.1329ZM25.4757 14.6921L25.5776 15.0328L27.4911 14.4604L27.3892 14.1197L25.4757 14.6921ZM25.1615 21.1167L25.0378 21.3918L26.8593 22.211L26.983 21.936L25.1615 21.1167ZM7.54173 21.3917L7.41805 21.1167L5.59655 21.936L5.72023 22.211L7.54173 21.3917ZM7.00201 15.0328L7.10392 14.6921L5.19041 14.1197L5.08851 14.4604L7.00201 15.0328ZM7.41805 21.1167C6.54325 19.1718 6.39989 17.0459 7.00201 15.0328L5.08851 14.4604C4.34719 16.9389 4.52724 19.5586 5.59655 21.936L7.41805 21.1167ZM25.5776 15.0328C26.1797 17.0459 26.0363 19.1718 25.1615 21.1167L26.983 21.936C28.0523 19.5586 28.2324 16.9389 27.4911 14.4604L25.5776 15.0328ZM18.8615 25.1329C17.1584 25.3739 15.4212 25.3739 13.7181 25.1329L13.4383 27.1105C15.327 27.3777 17.2525 27.3777 19.1412 27.1105L18.8615 25.1329ZM11.2542 11.2986C14.5741 10.6879 18.0054 10.6879 21.3254 11.2986L21.6868 9.33433C18.1279 8.67964 14.4517 8.67964 10.8928 9.33433L11.2542 11.2986ZM12.7211 24.9919C10.3166 24.6517 8.37539 23.2452 7.54174 21.3917L5.72023 22.211C6.87378 24.7758 9.45735 26.5473 12.4414 26.9695L12.7211 24.9919ZM20.1382 26.9695C23.1222 26.5473 25.7057 24.7758 26.8593 22.211L25.0378 21.3917C24.2041 23.2453 22.263 24.6517 19.8584 24.9919L20.1382 26.9695ZM21.3254 11.2986C23.4184 11.6837 24.9823 13.0425 25.4757 14.6921L27.3892 14.1197C26.6477 11.6409 24.3965 9.83282 21.6868 9.33433L21.3254 11.2986ZM10.8928 9.33433C8.18303 9.83282 5.93184 11.6409 5.19041 14.1197L7.10392 14.6921C7.59729 13.0425 9.16115 11.6837 11.2542 11.2986L10.8928 9.33433ZM19.6216 10.1728L19.3379 10.7596L21.1361 11.6288L21.4198 11.0421L19.6216 10.1728ZM11.1598 11.0421L11.4434 11.6288L13.2416 10.7596L12.958 10.1728L11.1598 11.0421ZM15.4349 5.60057L15.5912 5.5763L15.285 3.60265L15.1286 3.62692L15.4349 5.60057ZM16.9883 5.5763L17.1447 5.60057L17.4509 3.62692L17.2945 3.60265L16.9883 5.5763ZM19.88 7.84323C20.0677 8.61997 19.9808 9.42972 19.6216 10.1728L21.4198 11.0421C21.9764 9.89056 22.1197 8.60834 21.8213 7.37402L19.88 7.84323ZM10.7582 7.37402C10.4599 8.60834 10.6032 9.89056 11.1598 11.0421L12.958 10.1728C12.5988 9.42972 12.5119 8.61997 12.6996 7.84323L10.7582 7.37402ZM15.5912 5.5763C16.0531 5.50464 16.5265 5.50464 16.9883 5.5763L17.2945 3.60265C16.6298 3.49951 15.9498 3.49951 15.285 3.60265L15.5912 5.5763ZM21.8213 7.37402C21.3397 5.38118 19.556 3.95353 17.4509 3.62692L17.1447 5.60057C18.5922 5.82515 19.62 6.76751 19.88 7.84323L21.8213 7.37402ZM12.6996 7.84323C12.9596 6.76751 13.9874 5.82515 15.4348 5.60057L15.1286 3.62692C13.0236 3.95353 11.2399 5.38118 10.7582 7.37402L12.6996 7.84323Z" fill="white"/>
</svg>
