<svg width="33" height="30" viewBox="0 0 33 30" fill="none" xmlns="http://www.w3.org/2000/svg">
<path d="M5.14012 17.574L6.10709 17.3245L5.14012 17.574ZM5.14012 10.9684L6.10709 11.2179L5.14012 10.9684ZM25.7434 10.9684L26.7103 10.7189L25.7434 10.9684ZM25.7434 17.574L26.7103 17.8235L25.7434 17.574ZM19.0748 23.6363L18.8665 22.6597L19.0748 23.6363ZM11.8087 23.6363L11.6004 24.613L11.8087 23.6363ZM11.8087 4.9061L11.6004 3.92943L11.8087 4.9061ZM19.0748 4.9061L19.2831 3.92943L19.0748 4.9061ZM28.0152 27.0512C28.4233 27.4222 29.0548 27.3921 29.4258 26.984C29.7968 26.5759 29.7668 25.9444 29.3587 25.5734L28.0152 27.0512ZM6.10709 17.3245C5.58878 15.3158 5.58878 13.2267 6.10709 11.2179L4.17316 10.7189C3.5704 13.055 3.5704 15.4875 4.17316 17.8235L6.10709 17.3245ZM24.7764 11.2179C25.2947 13.2267 25.2947 15.3158 24.7764 17.3245L26.7103 17.8235C27.3131 15.4875 27.3131 13.055 26.7103 10.7189L24.7764 11.2179ZM18.8665 22.6597C16.6142 23.14 14.2693 23.14 12.017 22.6597L11.6004 24.613C14.1273 25.1519 16.7562 25.1519 19.2831 24.613L18.8665 22.6597ZM12.017 5.88278C14.2693 5.40249 16.6142 5.40249 18.8665 5.88278L19.2831 3.92943C16.7562 3.39058 14.1273 3.39058 11.6004 3.92943L12.017 5.88278ZM12.017 22.6597C9.03718 22.0242 6.77854 19.9268 6.10709 17.3245L4.17316 17.8235C5.054 21.2373 7.96252 23.8373 11.6004 24.613L12.017 22.6597ZM19.2831 24.613C22.921 23.8373 25.8295 21.2373 26.7103 17.8235L24.7764 17.3245C24.105 19.9268 21.8463 22.0242 18.8665 22.6597L19.2831 24.613ZM18.8665 5.88278C21.8463 6.5182 24.105 8.61564 24.7764 11.2179L26.7103 10.7189C25.8295 7.30515 22.921 4.70519 19.2831 3.92943L18.8665 5.88278ZM11.6004 3.92943C7.96252 4.70519 5.054 7.30515 4.17316 10.7189L6.10709 11.2179C6.77854 8.61564 9.03717 6.5182 12.017 5.88278L11.6004 3.92943ZM23.1354 22.615L28.0152 27.0512L29.3587 25.5734L24.4789 21.1372L23.1354 22.615Z" fill="white"/>
</svg>
