<svg width="33" height="30" viewBox="0 0 33 30" fill="none" xmlns="http://www.w3.org/2000/svg">
<g clip-path="url(#clip0_2_438)">
<path d="M7.55579 26.3403C7.55579 23.1272 9.81579 20.3904 12.8872 19.884L13.1639 19.8384C15.6233 19.4329 18.1294 19.4329 20.5888 19.8384L20.8655 19.884C23.9369 20.3904 26.1969 23.1272 26.1969 26.3403C26.1969 27.7291 25.1071 28.8549 23.7628 28.8549H9.98996C8.6456 28.8549 7.55579 27.7291 7.55579 26.3403Z" stroke="white" stroke-width="1.99727"/>
<path d="M22.3134 10.1305C22.3134 13.026 19.8792 15.3733 16.8764 15.3733C13.8736 15.3733 11.4394 13.026 11.4394 10.1305C11.4394 7.23499 13.8736 4.8877 16.8764 4.8877C19.8792 4.8877 22.3134 7.23499 22.3134 10.1305Z" stroke="white" stroke-width="1.99727"/>
</g>
<defs>
<clipPath id="clip0_2_438">
<rect width="31.9563" height="29.0511" fill="white" transform="translate(0.898071 0.893066)"/>
</clipPath>
</defs>
</svg>
